<svg id="Capa_1" data-name="Capa 1" xmlns="http://www.w3.org/2000/svg" viewBox="0 0 190 50"><path d="M106.44,15.45h3.68V20.4a5.44,5.44,0,0,1,5-1.93,5.59,5.59,0,0,1,3.64,1.88,6.48,6.48,0,0,1-.18,8.23c-2.14,2.24-5.37,2.21-8.42-.16v1.46h-3.68Zm10.15,9a3.42,3.42,0,0,0-6.83,0,3.42,3.42,0,0,0,6.83,0Z"/><path d="M16.72,28.39v4.76H13V18.79h3.7l.08,1.42a5.75,5.75,0,0,1,8.77.38,6.47,6.47,0,0,1-.73,8.19C22.61,30.77,19.33,30.67,16.72,28.39Zm3-7.32a3.24,3.24,0,0,0-3.38,3.42,3.21,3.21,0,0,0,3.42,3.27,3.22,3.22,0,0,0,3.39-3.31A3.27,3.27,0,0,0,19.73,21.07Z"/><path d="M100.18,20.27V18.78h3.71V29.86h-3.75V28.39c-3.15,2.39-6.44,2.37-8.56,0A6.5,6.5,0,0,1,91.86,20C94.07,17.77,97.3,17.83,100.18,20.27Zm-3,.8a3.26,3.26,0,0,0-3.45,3.26,3.41,3.41,0,0,0,6.81.19A3.27,3.27,0,0,0,97.16,21.07Z"/><path d="M131.43,20.21V18.79h3.75V29.87h-3.73l-.07-1.47c-2.95,2.36-6.34,2.37-8.46.06a6.53,6.53,0,0,1,.06-8.3C125.11,17.82,128.39,17.8,131.43,20.21Zm.36,4.18a3.41,3.41,0,1,0-3.32,3.37A3.2,3.2,0,0,0,131.79,24.39Z"/><path d="M38.19,20.29v-1.5h3.7V29.85H38.2V28.22a5.41,5.41,0,0,1-4.46,2,5.53,5.53,0,0,1-4.32-2.06,6.53,6.53,0,0,1,.68-8.35C32.38,17.75,35.6,17.9,38.19,20.29Zm.35,4.13a3.4,3.4,0,0,0-6.8.06,3.21,3.21,0,0,0,3.43,3.28A3.19,3.19,0,0,0,38.54,24.42Z"/><path d="M180.07,26.08a4.55,4.55,0,0,1-1.75,2.72,8.18,8.18,0,0,1-9.28,0,5.8,5.8,0,0,1,1-9.52,7.84,7.84,0,0,1,6.46-.38A5.41,5.41,0,0,1,180,25.09H170.6a2.23,2.23,0,0,0,1.22,2.05c1.13.74,3.85.72,4.79-.71a.86.86,0,0,1,.61-.34C178.14,26.06,179.05,26.08,180.07,26.08Zm-9.41-3.26h5.51a2.34,2.34,0,0,0,.45-.07A2.58,2.58,0,0,0,174,20.89,3.08,3.08,0,0,0,170.66,22.82Z"/><path d="M141.39,29.89h-3.75V18.81h3.69v1.71a5.71,5.71,0,0,1,6.42-1.78,3.34,3.34,0,0,1,2.59,3.08c.12,2.65,0,5.31,0,8h-3.81V26.71c0-.92,0-1.84,0-2.76,0-1.79-.84-2.62-2.53-2.61A2.38,2.38,0,0,0,141.39,24C141.37,25.94,141.39,27.87,141.39,29.89Z"/><path d="M161.51,29.86c0-2,0-3.95,0-5.91s-.95-2.72-2.82-2.6a2.27,2.27,0,0,0-2.33,2.46c0,2,0,4,0,6h-3.77V18.79h3.69v1.78a5.48,5.48,0,0,1,4-2.14,4.64,4.64,0,0,1,3.65,1,4,4,0,0,1,1.32,2.3c.16,2.68.06,5.37.06,8.12Z"/><path d="M66,30.32c-1.13-.17-2-.22-2.75-.43a5.72,5.72,0,0,1,.07-11.19,8.37,8.37,0,0,1,6,.52,5.27,5.27,0,0,1,3.13,5.12,5.14,5.14,0,0,1-3.2,5.05A21.19,21.19,0,0,1,66,30.32Zm-.32-2.74A3.16,3.16,0,0,0,69,24.22a3.39,3.39,0,1,0-3.32,3.36Z"/><path d="M57.34,25.36a5.51,5.51,0,0,1-3.67,4.33,8.6,8.6,0,0,1-6.06,0,5.51,5.51,0,0,1-3.75-5.22,5.44,5.44,0,0,1,3.41-5.44,7.84,7.84,0,0,1,7.64.58,5.46,5.46,0,0,1,2.4,3.67c-1.1,0-2.13,0-3.15,0-.19,0-.41-.33-.54-.55a3.37,3.37,0,0,0-3.91-1.6,3.09,3.09,0,0,0-2.41,3.13,3.09,3.09,0,0,0,2.27,3.14,3.54,3.54,0,0,0,4.08-1.46,1.35,1.35,0,0,1,.92-.55C55.45,25.31,56.34,25.36,57.34,25.36Z"/><path d="M89.3,21.93a21.16,21.16,0,0,0-3.43-.32,2.59,2.59,0,0,0-2.52,2.81c0,1.49,0,3,0,4.47,0,.31,0,.62,0,1H79.57V18.78h3.69V20.6c.37-.39.63-.69.92-1a4.44,4.44,0,0,1,4.49-1.09,1,1,0,0,1,.6.75C89.35,20.24,89.3,21.2,89.3,21.93Z"/></svg>