<svg id="Capa_1" data-name="Capa 1" xmlns="http://www.w3.org/2000/svg" viewBox="0 0 167 211"><defs><style>.cls-1{fill:#000;}</style></defs><path class="cls-1" d="M149,75.49c-1,3.33-2,6.66-3,10q-6.67,23.25-13.31,46.51c-.83,2.9-2.09,3.83-5.12,3.83H55.63c-3.28,0-5.18,1.5-5.18,4.09s1.9,4.1,5.18,4.1h71.8c3.28,0,5.18,1.5,5.18,4.09s-1.89,4.1-5.18,4.1h-5.58c8.31,1.83,11.51,8.59,10.57,14.39a12.51,12.51,0,0,1-12.14,10.17,12.22,12.22,0,0,1-12.14-11.35c-.53-5.45,2.89-11.54,10.54-13.15h-54a12.83,12.83,0,0,1,8.09,5.22,12.27,12.27,0,0,1,2,9.35,12.26,12.26,0,0,1-24.29-1.79c-.45-5.94,4-11.36,10.29-12.84-2,0-4,0-6,0a12.27,12.27,0,0,1-6.09-23c.32-.17.62-.36,1-.57-4.92-22.17-9.84-44.29-14.77-66.5H27c-4.5,0-9,0-13.51,0a4.06,4.06,0,0,1-4-5.59,3.84,3.84,0,0,1,3.69-2.57q12.42,0,24.85,0c2.23,0,3.65,1.31,4.17,3.59,1,4.21,1.88,8.42,2.84,12.76h1.78q48.31,0,96.64,0c2.53,0,4.41.68,5.5,3Z"/></svg>