<svg id="Capa_1" data-name="Capa 1" xmlns="http://www.w3.org/2000/svg" viewBox="0 0 50 50"><path d="M25.3,17h6.19a.61.61,0,0,1,.49.2q1.81,1.83,3.63,3.63a.6.6,0,0,1,.19.47V32.07a.63.63,0,0,1-.2.49q-1.82,1.8-3.61,3.61a.59.59,0,0,1-.46.2H19a.6.6,0,0,1-.46-.19l-3.64-3.64a.6.6,0,0,1-.18-.46V21.3a.56.56,0,0,1,.18-.46l3.66-3.65A.7.7,0,0,1,19,17C21.11,17,23.21,17,25.3,17Zm0,1.71h-5.5a.65.65,0,0,0-.54.21c-.86.87-1.73,1.73-2.58,2.61a.78.78,0,0,0-.21.5q0,4.66,0,9.31a.72.72,0,0,0,.2.48c.86.89,1.73,1.76,2.61,2.62a.83.83,0,0,0,.51.2h11a.82.82,0,0,0,.5-.2c.88-.86,1.73-1.73,2.6-2.59a.68.68,0,0,0,.22-.54q0-4.63,0-9.28a.78.78,0,0,0-.21-.5c-.85-.88-1.72-1.74-2.58-2.61a.65.65,0,0,0-.54-.21Z"/><path d="M27.25,14.15H23.3V10.78h3.95Z"/><path d="M21.59,16.42V14.75H29v1.67Z"/><path d="M31.8,12.46H28.92a.63.63,0,0,1-.28,0c-.09-.06-.22-.17-.22-.26s.12-.21.21-.27.16,0,.25,0h5.88c.08,0,.19,0,.24,0s.21.18.21.27-.13.2-.22.26a.63.63,0,0,1-.28,0Z"/><path d="M29.24,11.37c-.08-.1-.21-.18-.25-.29s.07-.3.26-.32l1.87-.24,2.58-.32c.2,0,.37,0,.39.24s-.14.3-.34.33l-4.37.54H29.3Z"/><path d="M29.36,13l3.38.42,1,.13c.2,0,.38.08.35.32s-.21.27-.41.25l-2.83-.36-1.52-.19c-.19,0-.35-.09-.34-.31S29.16,13,29.36,13Z"/><path d="M25.3,19.29h5.25a.61.61,0,0,1,.49.2c.77.78,1.55,1.54,2.31,2.32a.69.69,0,0,1,.17.41q0,4.48,0,9a.59.59,0,0,1-.16.38c-.78.8-1.56,1.58-2.36,2.36a.59.59,0,0,1-.38.16c-3.56,0-7.13,0-10.69,0a.59.59,0,0,1-.38-.16c-.8-.78-1.58-1.56-2.36-2.36a.59.59,0,0,1-.16-.38q0-4.48,0-9a.69.69,0,0,1,.17-.41c.77-.79,1.55-1.57,2.34-2.33a.75.75,0,0,1,.43-.18Zm0,2.28c-.27,0-.28.21-.29.42a4.55,4.55,0,0,1-4.31,4.4c-.22,0-.48,0-.52.28s.11.3.51.32a4.5,4.5,0,0,1,4.11,3.2A10,10,0,0,1,25,31.52c0,.18.11.28.28.28a.26.26,0,0,0,.29-.27v-.14a4.54,4.54,0,0,1,3.79-4.34c.25-.05.52,0,.77-.09a.43.43,0,0,0,.25-.29c0-.08-.15-.19-.25-.26s-.13,0-.19,0a4.52,4.52,0,0,1-4.15-3.19,8.21,8.21,0,0,1-.22-1.3C25.54,21.71,25.47,21.59,25.28,21.57Z"/><path d="M22.14,26.69a5.24,5.24,0,0,0,3.13-3.13,5.31,5.31,0,0,0,3.14,3.13,5.31,5.31,0,0,0-3.14,3.13,5.26,5.26,0,0,0-3.13-3.13Z"/></svg>