<svg id="Capa_1" data-name="Capa 1" xmlns="http://www.w3.org/2000/svg" viewBox="0 0 190 111"><path d="M97.61,20c.83.18,1.67.35,2.5.55a20.14,20.14,0,1,1-7.72-.29,8.64,8.64,0,0,0,1-.26ZM95.45,59.23a18.93,18.93,0,1,0-18.73-19A18.87,18.87,0,0,0,95.45,59.23Z"/><path d="M31,77.93c.94-2,1.87-4,2.85-6,.2-.39.69-.94,1-.9a1.83,1.83,0,0,1,1.07.93c.95,2,1.81,4,2.72,6-.83.32-1.38.22-1.6-.62a1.17,1.17,0,0,0-1.46-1c-.58.06-1.18-.05-1.75,0-.33,0-.81.29-.88.54A1.6,1.6,0,0,1,31,78.17Zm2.63-2.7h2.43l-1.22-2.77Z"/><path d="M160,76.76c-1.42,1.79-3.45,1.94-5.6.35l.56-.8.38.09a17.09,17.09,0,0,0,2.41.63,1.13,1.13,0,0,0,.85-.72,1.22,1.22,0,0,0-.64-.92,16.71,16.71,0,0,0-1.9-.57A1.81,1.81,0,0,1,154.61,73a1.93,1.93,0,0,1,1.61-1.9,4,4,0,0,1,3.42.7l-.48.87a3.7,3.7,0,0,1-.39-.08,5.38,5.38,0,0,0-.85-.38c-.76-.18-1.71-.44-2,.55s.77.94,1.36,1.23c.92.45,1.81.94,2.71,1.41Z"/><path d="M101.6,88V83.37c.66-.09.66-.09,2.26,1.86,1-.4.77-2.13,2.44-2L106.05,88h-.7V84.66l-1.48,2.06-1.29-1.84-.28.12v3Z"/><path d="M84.71,88V83.39c2-.45,3.36-.2,3.73.67a1.6,1.6,0,0,1-.86,2.14L88.7,88h-.94c-.56-.71-.68-2-2.08-1.65L85.41,88Zm.94-2.27a20.7,20.7,0,0,0,2-.65c.1,0,.1-.67,0-.71-.61-.23-1.24-.39-2-.61Z"/><path d="M79.55,88l-.21-4.69h3.52l0,.44-2.61.28-.06,1.16h2.32c-.53,1.1-1.5.41-2.25.84v1.16c.7,0,1.35,0,2,0s.69.33.51.82Z"/><path d="M108.4,88c-.07-1.55-.15-3.09-.23-4.82,1.11,0,2.07,0,3,0,.17,0,.33.22.49.34-.16.13-.31.34-.48.35-.66,0-1.31,0-2,0l-.11,1.25h2.33l.08.51-2.32.33-.08,1.19c.75,0,1.4,0,2,0s.71.3.57.81Z"/><path d="M96.91,88a4.37,4.37,0,0,1-1.31-4.47c.06-.14.32-.34.4-.3a.67.67,0,0,1,.38.43c.05.73,0,1.48,0,2.21s.38,1.38,1.25,1.36,1.14-.57,1.14-1.34,0-1.32,0-2a2.17,2.17,0,0,1,.36-.71c.15.22.4.43.42.66,0,.69,0,1.4,0,2.1a2.27,2.27,0,0,1-1.31,2Z"/><path d="M90.57,88a3.29,3.29,0,0,1-.14-.68c0-1.32,0-2.64,0-4.1,1.23,0,2.39-.31,3.48.22v.39L91.32,84l-.06,1.15,2.38.2,0,.5-2.33.2v2Z"/><path d="M74.16,88V83.38c2-.5,3.35-.08,3.54,1.12s-.48,1.77-2.74,2L74.86,88ZM75,85.91a13.38,13.38,0,0,0,1.81-.74,1,1,0,0,0,0-.8A11.59,11.59,0,0,0,75,83.81Z"/><path d="M114.5,88l-1.15-.71,0-.29a4.29,4.29,0,0,1,.8,0c.37.06.75.3,1.1.26s.53-.35.79-.55a3.17,3.17,0,0,0-.59-.62c-.3-.16-.75-.12-1-.34-.41-.38-1-1-1-1.32.11-.5.77-.91,1.27-1.24a1.08,1.08,0,0,1,.89.06,4.71,4.71,0,0,1,.85.71,5.45,5.45,0,0,0-1,0,12,12,0,0,0-1.29.4,5.71,5.71,0,0,0,.87.77c.45.27,1.06.35,1.43.7.62.56.32,1.4-.68,2.19Z"/><path d="M94.05,78.18V71.13a30.74,30.74,0,0,1,4.08,0c1.65.22,2,1.8.59,3.33a2.35,2.35,0,0,1,.42.15,1.42,1.42,0,0,1,.83,1.84,2.54,2.54,0,0,1-1.48,1.4A34.26,34.26,0,0,1,94.05,78.18ZM95.29,77a15.13,15.13,0,0,0,2.54,0c.37-.07.65-.62,1-1-.31-.29-.59-.79-.94-.84a18.09,18.09,0,0,0-2.56,0Zm0-3.06a14.27,14.27,0,0,0,2.36,0,1.1,1.1,0,0,0,.67-.88,1.15,1.15,0,0,0-.75-.82,14.36,14.36,0,0,0-2.28,0Z"/><path d="M45.76,71.08h1.32v7.29a6.26,6.26,0,0,1-1.49-.89c-1.15-1.34-2.23-2.76-3.55-4.4V78l-1.17.13v-7.3a5.44,5.44,0,0,1,1.53.8c1.11,1.25,2.12,2.6,3.36,4.15Z"/><path d="M141.65,75.51,143.43,78a1.49,1.49,0,0,1-2-.7c-.61-.89-1.09-2.1-2.73-1.51V78l-1.29.07V71c1.12,0,2.19,0,3.27,0,1.5,0,2.36.63,2.61,1.7S143.08,74.63,141.65,75.51Zm-3-.93a10.69,10.69,0,0,0,2.41-.18,1.52,1.52,0,0,0,.86-1.13,1.36,1.36,0,0,0-.84-1,13,13,0,0,0-2.43,0Z"/><path d="M60.87,78.2a3.63,3.63,0,0,1-3.77-3.63A3.69,3.69,0,0,1,61,70.91a3.65,3.65,0,1,1-.12,7.29Zm2.53-3.68a2.48,2.48,0,1,0-2.46,2.56A2.43,2.43,0,0,0,63.4,74.52Z"/><path d="M83.81,78.19A3.61,3.61,0,0,1,80,74.6a3.84,3.84,0,1,1,3.79,3.59Zm0-1.11a2.45,2.45,0,0,0,2.54-2.49A2.48,2.48,0,0,0,83.84,72a2.42,2.42,0,0,0-2.47,2.43A2.45,2.45,0,0,0,83.79,77.08Z"/><path d="M72.28,75.51v-4.4l1.14-.1v7.42a7.73,7.73,0,0,1-1.49-1c-1.13-1.32-2.2-2.7-3.53-4.35v5H67.2V71.18c.68-.36,1.17-.13,1.64.48,1,1.35,2.12,2.66,3.18,4Z"/><path d="M111.51,70.78a6.1,6.1,0,0,1,1.6.9c1.12,1.27,2.15,2.63,3.41,4.2V71.09l1.22,0V78.4a7,7,0,0,1-1.49-1c-1.14-1.32-2.2-2.71-3.52-4.36v5h-1.22Z"/><path d="M120.57,78.11V71a29.64,29.64,0,0,1,4,.28,3.26,3.26,0,0,1,2.54,3.35,3.43,3.43,0,0,1-2.62,3.32,4.63,4.63,0,0,1-1,.18C122.56,78.12,121.63,78.11,120.57,78.11Zm1.25-1.17c1.45.11,2.82.25,3.64-1.14a2.29,2.29,0,0,0-.2-2.74c-.91-1.14-2.16-1-3.44-.89Z"/><path d="M129.57,78.11v-7h5.27l0,1h-4v1.8h3.44c.23.79.22,1.24-.69,1.19s-1.78,0-2.76,0V77h4l.25.32c-.25.27-.49.76-.75.77C132.77,78.15,131.22,78.11,129.57,78.11Z"/><path d="M152.66,78c-.9.3-1.44.13-1.65-.7a1.1,1.1,0,0,0-1.38-.91,6.55,6.55,0,0,1-1.4,0,1.18,1.18,0,0,0-1.49.94c-.19.76-.69,1-1.57.68.37-.85.73-1.68,1.1-2.51.59-1.32,1.16-2.65,1.81-3.94A1.19,1.19,0,0,1,149,71a1,1,0,0,1,.76.51C150.71,73.62,151.66,75.76,152.66,78Zm-2.53-2.72-1.26-2.82-1.19,2.82Z"/><path d="M109.31,78c-.84.26-1.43.19-1.64-.68a1.16,1.16,0,0,0-1.47-.94,6,6,0,0,1-1.4,0,1.11,1.11,0,0,0-1.39.89c-.21.81-.73,1-1.62.72,1-2.2,2-4.4,3-6.57a.86.86,0,0,1,1.56,0C107.34,73.58,108.31,75.78,109.31,78Zm-2.52-2.71-1.27-2.77c-.28.62-.48,1-.67,1.45s-.33.82-.54,1.32Z"/><path d="M55.1,72.16H52.94v5.9H51.67V72.23l-2.23-.14c-.27-.7-.17-1.08.65-1.07,1.44,0,2.88,0,4.32,0C55.2,71,55.38,71.32,55.1,72.16Z"/><path d="M76.35,71.09,77.47,71v7l-1.12.06Z"/><path d="M103.1,39.41c4.19.94,5.89,2.73,5.26,5.45-.57,2.5-4,4.59-6.81,3.88,3.17-1,3.66-3.27,3.29-5.91-.27-2-1.58-3-3.6-3.37a3.26,3.26,0,0,0,2.59-2.58,13.1,13.1,0,0,0,0-3.7,1.91,1.91,0,0,0-2.24-1.74c-.78,0-1.56,0-2.48,0V42.68l-.45.1c-.69-2.11-1.44-4.2-2-6.33a9.46,9.46,0,0,1-.1-2.33c-.06-1.89-.06-1.89-1.59-3.06,0-.07.06-.19.09-.19,2.73,0,5.47-.13,8.2,0a4.29,4.29,0,0,1,4.22,3.42,3.86,3.86,0,0,1-2.06,4.11A22.1,22.1,0,0,1,103.1,39.41Z"/><path d="M86.38,41.86h5.11c-.85-2.35-1.59-4.6-2.5-6.79a3.78,3.78,0,0,1,.11-3.55c.15-.27.48-.7.62-.66a1.29,1.29,0,0,1,.77.66C92,35.27,93.38,39,94.82,42.78c.39,1,.77,2,1.19,3.06a3.77,3.77,0,0,0,3.37,2.73l-.15.31h-8c.17-.19.23-.32.32-.35,1.84-.62,2-1,1.35-2.87-1.14-3.19-1.14-3.19-4.56-3.2-2.35,0-2.35,0-3.13,2.17-.25.7-.45,1.42-.75,2.1-.41,1-.23,1.58.85,1.83a4.43,4.43,0,0,1,.63.36H81.79c1.68-.49,1.8-2,2.27-3.32.81-2.2,1.59-4.41,2.41-6.7C87.43,40,86.31,40.84,86.38,41.86Z"/></svg>